<?xml version="1.0" encoding="UTF-8"?><svg id="a" xmlns="http://www.w3.org/2000/svg" viewBox="0 0 49 50"><path d="M7,13.05l3.78,35.86,13.33-4.6c-.33,.03-.67,.05-1.02,.05-1.37,0-2.72-.22-4.05-.67s-2.56-1.06-3.71-1.84c-.13-.08-.22-.21-.27-.4s-.04-.36,.04-.51l1.33-2.39c.15-.3,.39-.46,.72-.46,.2,0,.39,.05,.57,.15,1.9,1.19,3.67,1.79,5.32,1.79,1.34,0,2.4-.32,3.17-.97,.77-.65,1.16-1.49,1.16-2.53,0-.68-.19-1.26-.57-1.73-.38-.47-.89-.87-1.52-1.2-.63-.33-1.56-.73-2.77-1.22l-1.1-.46c-1.72-.73-3.17-1.67-4.35-2.81-1.18-1.14-1.77-2.81-1.77-5.02,0-1.54,.35-2.91,1.04-4.1,.7-1.19,1.67-2.12,2.91-2.77,1.24-.66,2.67-.99,4.29-.99,1.34,0,2.68,.22,4.01,.67,1.33,.44,2.53,1.06,3.59,1.84,.13,.08,.21,.21,.27,.4,.05,.19,.04,.36-.04,.51l-1.25,2.39c-.15,.3-.39,.46-.72,.46-.2,0-.39-.05-.57-.15-.99-.63-1.93-1.09-2.83-1.37-.9-.28-1.7-.42-2.41-.42-1.14,0-2.04,.31-2.7,.93-.66,.62-.99,1.41-.99,2.38s.36,1.8,1.08,2.45,1.88,1.3,3.48,1.96c.23,.08,1.1,.42,2.6,1.04,1.51,.62,2.7,1.53,3.59,2.72,.89,1.19,1.33,2.6,1.33,4.22s-.37,2.97-1.12,4.2c-.54,.89-1.25,1.64-2.1,2.24l8.79-3.03L42,.75,7,13.05Z" fill="#fcd116"/></svg>